<svg version="1.1" xmlns="http://www.w3.org/2000/svg" viewBox="0 0 319.6173511726738 319.6173511726738" width="319.6173511726738" height="319.6173511726738">
<g stroke-linecap="round" transform="translate(21.808675586336904 21.808675586336932) rotate(354.85989208261014 138 138)"><path d="M31.65 -0.48 L243.98 -0.9 L257.66 0.75 L266.21 9.15 L275.63 17.23 L275.98 32.53 L277.03 243.57 L273.87 256.25 L268.53 266.19 L259.61 275.15 L245.94 277.34 L30.15 277.86 L16.32 273.05 L7.6 266.85 L3.86 259.2 L1.28 244.39 L0.48 25.95 L1.68 18.55 L7.27 9.31 L18.48 1.23 L33.5 -1.95" stroke="none" stroke-width="0" fill="#302012"></path><path d="M32 0 M32 0 C81.09 2.09, 129.45 1.96, 244 0 M32 0 C79.32 -0.53, 126.71 -0.27, 244 0 M244 0 C264.31 1.42, 274.68 12.21, 276 32 M244 0 C263.22 -0.49, 275.76 9.06, 276 32 M276 32 C274.74 114.19, 272.94 199.02, 276 244 M276 32 C275.44 102.84, 275.22 172.85, 276 244 M276 244 C276.52 266.38, 265.31 274.62, 244 276 M276 244 C274.39 263.93, 264.85 277.58, 244 276 M244 276 C182.95 277.51, 119.76 276.73, 32 276 M244 276 C187.31 275.4, 130.95 275.13, 32 276 M32 276 C9.84 274.74, 1.93 264.32, 0 244 M32 276 C9.92 277.82, 0.07 265.92, 0 244 M0 244 C1.69 177.51, 1.27 108.43, 0 32 M0 244 C-1.08 164.29, -0.73 84.31, 0 32 M0 32 C-1.08 11.02, 10.73 -1.98, 32 0 M0 32 C-1.9 10.68, 11.2 -0.22, 32 0" stroke="#000000" stroke-width="1" fill="none"></path></g><g transform="translate(99.77516852499264 73.14754101637479) rotate(354.85989208261014 70.83956845033987 87.92566380541066)" stroke="none"><path d="M-0.33 5.09 L-0.39 4.28 L-0.12 5.45 L2.43 7.35 L-0.57 9.38 L1.67 7.46 L-1.07 9.42 L0.35 12.66 L2.81 11.33 L-0.7 14.2 L-0.69 18.04 L1.17 19.7 L0.46 21.08 L2.4 23.38 L2.15 26.34 L1.27 25.44 L0.04 27.73 L1.85 31.67 L1.61 32.94 L2.05 33.26 L2.17 38.83 L1.57 37.15 L0.84 39.46 L1.93 42.12 L0.53 46.69 L3.15 48.9 L0.69 52.94 L0.99 54.62 L3.15 54.64 L3.79 57.79 L1.6 59.2 L2.93 61.32 L2.89 66.01 L1.68 67.89 L1.02 68.85 L0.45 70.79 L1.78 73.51 L1.43 73.89 L2.8 76.14 L0.65 78.03 L1.49 81.48 L3.94 80.85 L3.09 84.08 L2.93 84.99 L0.66 89.85 L3.79 91.66 L3.74 91.71 L4.39 93.86 L3.63 95.75 L2.5 98.59 L1.5 100.05 L1.02 104.62 L1.66 104.49 L4.65 105.93 L4.21 110.73 L3.92 112.25 L1.09 112.41 L3.16 115.34 L4.03 116.98 L4.5 122.72 L5.98 125.64 L6.7 127.51 L6.3 134.02 L8.74 137.22 L9.37 137.51 L7.4 144.32 L10.17 144.88 L6.86 147.9 L8.9 148.92 L10.33 153.22 L8.18 153.38 L6.84 154.34 L10.44 157.41 L7.21 162.3 L9.9 163.15 L7.39 164.93 L7.92 166.91 L7.23 170.44 L7.75 169.21 L6.3 170.84 L6.39 173.94 L6.68 175.51 L9.31 174.78 L8.27 174.83 L9.81 178.62 L8.77 178.38 L9 178.1 L7.7 178.3 L7.82 182.49 L6.4 181.94 L7.69 182.2 L8.7 183.83 L7.77 184.27 L10.16 185.67 L9.11 186.7 L10.25 187.78 L8.61 186.29 L10.25 186.84 L8.83 186.83 L11.15 190.13 L10.28 188.68 L10.57 192.12 L9.28 189.41 L9.12 190.46 L11.84 191.76 L11.32 194 L10.61 191.68 L11.53 194.76 L11.94 193.67 L13.2 194.75 L11.38 196.05 L13.6 194.18 L17.01 195.52 L17.2 193.44 L22.63 195.55 L24.91 194.51 L27.22 195.84 L30.03 196.76 L35.51 197.02 L41.78 195.34 L45.41 197.16 L49.09 195.98 L53.97 196.48 L54.7 196.82 L60.63 198.81 L60.56 195.18 L62.06 198.76 L64.35 197.75 L64.12 197.91 L66.45 196.23 L65.22 197.87 L64.85 196.29 L65.44 194.59 L62.86 196 L62.8 196.65 L64.19 195.42 L62.42 193.18 L64.98 194.98 L63.85 191.12 L63.87 193.12 L63.13 191.19 L61.32 188.04 L64.13 185.5 L63.59 185.16 L62.51 185.76 L62.07 181.66 L61.07 179.64 L64.05 180.72 L60.51 180.01 L59.84 178.51 L62.53 176.34 L60.34 171.98 L63.47 172.47 L60.21 171.07 L61.36 168.85 L60.57 164.32 L62.75 163.08 L60.39 163.43 L62 161.38 L60.43 158.7 L61.29 157.55 L63.98 153.44 L63.3 154.97 L62.02 152.32 L61.14 148.01 L62.17 147.81 L63.72 145.43 L63.04 142.95 L61.16 142.79 L63.17 138.39 L62.69 139.81 L62.19 138.36 L61.38 133.82 L61.57 132.67 L62.08 129.72 L64.57 129.73 L60.76 129.02 L63.57 125.72 L63.31 123.6 L62.17 122.84 L60.64 123.52 L61.07 119.63 L61.56 119.06 L58.79 117.26 L61.98 116.46 L59.66 114.87 L57.65 113.94 L57.83 112.58 L60.12 112.74 L57.26 113.11 L56.75 110.66 L55.7 110.96 L58.72 107.31 L56.74 105.42 L56.3 105.05 L57.78 103.18 L54.41 103.68 L54.72 102.5 L53.55 100.54 L55.18 102.03 L53.55 99.98 L55.39 99.61 L55.94 97.74 L54.6 96.87 L54.09 97.15 L56.65 97.43 L55.24 96.9 L53.13 96.69 L56.37 93.5 L54.1 93.24 L54.97 92.63 L55.47 92.85 L56.34 93.16 L55.64 93.11 L55 92.36 L58.12 94.15 L58.46 94.27 L59.56 94.72 L59.47 93.32 L59.09 92.75 L58.57 92.54 L61.66 91.15 L60.82 93.33 L63.46 93.62 L66.41 90.3 L67.65 92.87 L66.62 89.43 L69.33 92.15 L70.65 91.68 L72.02 90.55 L76 91.23 L77.72 88.52 L78.11 89.61 L81.56 88.09 L80.22 91.36 L81.2 88.09 L82.77 90.2 L85.49 88.94 L87.92 87.25 L86.99 87.84 L90.35 87.2 L88.78 86.99 L91.85 89.53 L91.77 87.16 L92.82 88.71 L94.66 88.32 L97.26 87.82 L97.96 85.61 L99.11 87.08 L99.3 85.39 L101.5 83.94 L104.24 85.18 L105.28 85.03 L106.02 85.7 L107.82 85.54 L108.41 82.84 L110.28 83.67 L113 83.1 L113.66 80.42 L115.18 81.36 L114.75 79.15 L116.16 79.09 L118.17 78.22 L118.94 80.93 L121.05 77.58 L124.38 78.73 L125.51 76.77 L127.1 75.52 L125.71 75.9 L126.86 77.51 L128.12 75.68 L131.34 73.5 L133.1 71.82 L131.21 72.69 L132.14 70.2 L137.06 70.26 L136.55 68.88 L135.92 65.76 L137.44 65.93 L138.68 65.36 L141.72 64 L139.98 61.79 L142.75 60.11 L139.58 58.98 L140.46 54.1 L141.11 52.05 L141.22 49.96 L143.45 47.5 L143.21 44.91 L142.39 41.02 L143.71 38.92 L143.72 37.3 L141.92 35.56 L142.33 31.79 L142.05 29.2 L144.86 25.75 L142.24 26.39 L141.82 23.23 L143.71 20.45 L144.87 18.25 L143.52 17.91 L143.47 15.42 L142.52 15.69 L144.87 11.76 L145.4 10.67 L142.16 10.24 L144.64 9.54 L141.54 6.25 L143.85 4.77 L140.4 5.16 L143.12 4.83 L141.28 4.12 L139.79 0.55 L140.49 0.66 L140.9 -1.21 L140.19 0.52 L137.99 0.74 L140.33 -0.38 L138.43 -0.36 L138.67 -0.75 L137.39 -1.54 L138.81 -3.5 L137.86 -1.99 L137.43 -3.73 L138.64 -5.56 L135.13 -7.2 L133.64 -5.08 L135.55 -6.65 L133.98 -8.8 L134.2 -8.23 L133.91 -7.79 L131.73 -10.92 L131.48 -7.94 L129.9 -10.5 L127.84 -9.31 L125.68 -10.96 L125.36 -12.63 L125.14 -10.92 L125.55 -11.61 L124.19 -12.01 L120.99 -15.37 L119.82 -13.24 L117.51 -15.86 L116.26 -14.48 L115.32 -15.22 L114.13 -15.77 L112.56 -16.22 L109.99 -15.8 L108.38 -18.65 L107.38 -20.24 L107.84 -17.09 L105.07 -19.59 L103.13 -18.14 L101.76 -18.36 L98.22 -18.62 L97.72 -21.27 L96.91 -22.16 L93.86 -21.26 L91.53 -22.6 L92.22 -21.27 L87.38 -22.39 L87.9 -21.06 L85.12 -20.39 L83.27 -19.41 L80.49 -20.09 L79.17 -21.7 L76.35 -23.17 L75.47 -21.52 L74.68 -22.14 L74.55 -21.28 L73.26 -20.32 L70.72 -20.21 L67.1 -19.82 L63.87 -22.34 L65.6 -21.6 L62.02 -19.91 L60.09 -20.8 L58.1 -19.8 L55.62 -20.59 L56.27 -19.25 L53.72 -18.95 L51.16 -18.77 L51.76 -19.47 L49.16 -21.85 L47.62 -20.55 L45.24 -20.8 L45.58 -21.21 L42.09 -18.54 L42.45 -21.47 L40.93 -20.39 L38.83 -20.17 L36.77 -18.92 L34.45 -20.78 L33.74 -17.68 L29.54 -19.14 L29.79 -17.04 L24.86 -16.35 L23.47 -19.38 L24.28 -17.89 L21.04 -15.91 L20.85 -17.87 L18.6 -16.82 L16.68 -17.19 L18.04 -15.55 L16.46 -18.4 L15.06 -15.93 L13.91 -14.82 L13.77 -16.4 L10.54 -15.81 L10.22 -15.62 L11.9 -16.94 L9.53 -13.66 L6.43 -16.59 L6.68 -13.02 L5.2 -15.94 L3.13 -12.58 L3.08 -14.39 L4.06 -13.65 L0.67 -11.97 L3.96 -10.36 L1.85 -9.71 L-1.06 -12.04 L-1.16 -12.03 L-0.88 -8.63 L1.07 -10.2 L-0.47 -11.71 L-2.22 -10.28 L-1.39 -8.83 L-1.99 -9.15 L-0.29 -8.58 L-1.37 -10.5 L-1.18 -9.96 L-3 -8.23 L-2.3 -8.78 L-3.07 -4.25 L-1.44 -6.85 L-1.3 -6.7 L-1.91 -6.22 L-1.56 -2.52 L-1.18 -1.73 L-3.95 -1.45 L-2.93 -1.04 L-0.7 -0.07 L-1 -0.62 L-0.29 -1.75 L-3.44 2.24 L-3.34 -0.68 L-0.5 1.45 L-1.98 2.14 L0.13 2.1 L-2.63 2.88 L-1.57 4.47 L-1.08 2.32 L-1 3.42 L1.28 3.63" stroke="none" stroke-width="0" fill="#40c057" fill-rule="evenodd"></path><path fill="#000000" d="M 3.47,4.59 Q 3.47,4.59 3.48,5.80 3.49,7.01 3.56,8.75 3.62,10.50 3.68,12.05 3.74,13.60 3.77,15.35 3.81,17.11 3.82,19.08 3.83,21.05 3.85,22.96 3.86,24.87 3.86,25.96 3.85,27.05 3.85,29.14 3.85,31.23 3.84,33.33 3.84,35.43 3.84,37.54 3.84,39.64 3.83,40.81 3.81,41.97 3.80,43.16 3.79,44.34 4.03,46.83 4.26,49.31 4.29,50.63 4.31,51.95 4.61,54.34 4.90,56.73 4.94,58.00 4.98,59.27 5.02,61.47 5.07,63.67 5.09,65.79 5.11,67.92 5.14,69.85 5.17,71.79 5.20,73.62 5.23,75.44 5.22,76.52 5.22,77.60 5.24,79.44 5.26,81.28 5.27,83.16 5.29,85.05 5.46,86.53 5.64,88.02 5.76,89.11 5.89,90.20 5.92,91.37 5.95,92.54 5.97,94.67 5.98,96.80 5.98,98.90 5.97,101.01 5.97,103.12 5.96,105.23 5.95,106.39 5.94,107.56 5.92,108.74 5.91,109.93 5.90,111.13 5.88,112.33 5.87,113.53 5.86,114.73 5.85,115.93 5.84,117.13 5.83,118.32 5.82,119.50 6.57,122.30 7.33,125.09 7.86,126.89 8.40,128.68 8.99,130.50 9.58,132.32 9.91,134.15 10.25,135.97 10.36,137.82 10.47,139.66 10.56,141.13 10.65,142.59 10.71,143.91 10.77,145.23 10.82,146.48 10.87,147.74 10.91,148.96 10.95,150.19 10.98,151.40 11.01,152.61 11.08,154.78 11.14,156.95 11.16,158.12 11.18,159.29 11.19,160.49 11.20,161.68 11.00,162.96 10.80,164.25 10.75,165.92 10.71,167.59 10.73,169.36 10.75,171.14 10.80,172.52 10.84,173.90 10.88,174.96 10.93,176.02 10.98,177.47 11.04,178.92 11.07,180.17 11.11,181.42 11.46,182.53 11.82,183.63 11.84,184.86 11.87,186.09 12.28,187.38 12.69,188.68 13.04,189.76 13.39,190.83 15.21,190.98 17.03,191.13 18.20,191.20 19.37,191.26 21.06,191.54 22.75,191.83 24.44,192.19 26.13,192.56 27.70,192.75 29.27,192.94 31.15,193.12 33.03,193.30 35.13,193.63 37.24,193.96 39.24,194.15 41.25,194.34 43.31,194.47 45.37,194.59 47.46,194.67 49.54,194.76 51.24,194.73 52.93,194.70 54.75,194.86 56.57,195.02 57.87,195.02 59.17,195.03 60.72,194.93 62.27,194.83 63.29,194.54 64.30,194.25 64.60,194.29 64.90,194.33 65.19,194.44 65.47,194.55 65.72,194.72 65.97,194.90 66.17,195.13 66.37,195.36 66.51,195.63 66.65,195.90 66.72,196.19 66.79,196.49 66.79,196.79 66.79,197.10 66.72,197.39 66.64,197.69 66.50,197.96 66.35,198.23 66.15,198.45 65.95,198.68 65.70,198.85 65.44,199.02 65.16,199.13 64.87,199.24 64.57,199.27 64.27,199.31 63.17,198.45 62.08,197.59 61.30,196.56 60.51,195.52 60.39,194.27 60.26,193.03 60.18,191.58 60.10,190.13 60.06,188.71 60.02,187.28 59.86,186.23 59.69,185.18 59.55,184.10 59.40,183.01 59.32,181.31 59.25,179.62 58.95,178.04 58.66,176.47 58.60,174.55 58.53,172.64 58.53,170.81 58.52,168.99 58.52,167.18 58.51,165.37 58.53,163.39 58.55,161.41 58.54,159.67 58.53,157.93 58.78,156.61 59.02,155.29 59.11,153.74 59.20,152.18 59.46,150.94 59.72,149.70 59.81,148.15 59.90,146.59 59.94,144.59 59.98,142.59 59.96,141.00 59.95,139.40 59.94,137.64 59.94,135.87 59.94,134.07 59.94,132.27 59.77,130.82 59.61,129.36 59.43,127.72 59.25,126.09 58.94,124.74 58.63,123.38 58.29,122.20 57.94,121.03 57.42,119.84 56.89,118.66 56.52,117.45 56.15,116.25 55.79,115.05 55.43,113.85 54.86,111.99 54.30,110.13 53.88,109.11 53.46,108.09 53.11,106.55 52.76,105.02 52.45,103.92 52.14,102.82 52.03,101.66 51.93,100.50 51.58,99.31 51.23,98.13 51.18,97.02 51.13,95.92 51.50,93.99 51.87,92.05 52.57,91.08 53.26,90.11 54.68,89.76 56.09,89.41 57.16,89.40 58.23,89.39 59.34,89.00 60.45,88.61 62.24,88.42 64.04,88.23 65.31,87.99 66.59,87.75 68.53,87.50 70.46,87.25 72.36,87.22 74.26,87.19 75.67,86.96 77.08,86.72 78.88,86.42 80.68,86.11 82.21,86.05 83.73,85.99 84.98,85.75 86.23,85.50 87.38,85.33 88.52,85.16 89.85,84.87 91.19,84.58 92.61,84.31 94.02,84.03 95.42,83.73 96.82,83.44 97.87,83.15 98.93,82.86 100.32,82.54 101.72,82.22 103.12,81.92 104.51,81.62 106.14,81.20 107.76,80.78 108.83,80.38 109.89,79.99 111.23,79.44 112.57,78.89 114.17,78.15 115.77,77.42 117.01,76.94 118.24,76.45 119.25,76.14 120.27,75.82 121.32,75.29 122.37,74.75 123.77,74.14 125.17,73.52 126.78,72.45 128.40,71.37 129.25,70.71 130.11,70.05 131.05,69.02 132.00,68.00 132.62,67.08 133.24,66.17 133.99,65.34 134.75,64.51 135.68,63.29 136.61,62.06 137.28,60.13 137.95,58.20 138.17,55.93 138.39,53.65 138.66,52.26 138.93,50.86 139.26,49.60 139.60,48.34 139.76,46.24 139.92,44.14 139.98,42.80 140.03,41.47 140.08,40.03 140.13,38.59 140.35,37.22 140.58,35.85 140.70,33.52 140.82,31.20 140.82,30.12 140.82,29.04 140.83,27.89 140.83,26.74 140.79,24.79 140.76,22.83 140.73,21.00 140.69,19.17 140.66,17.53 140.62,15.90 140.59,14.37 140.55,12.84 140.53,11.35 140.50,9.87 140.20,8.82 139.90,7.77 139.22,6.09 138.55,4.41 137.82,2.86 137.08,1.31 136.38,0.16 135.67,-0.98 134.68,-2.02 133.68,-3.07 132.50,-3.98 131.32,-4.89 130.28,-5.77 129.23,-6.66 128.17,-7.01 127.11,-7.36 125.94,-7.98 124.76,-8.60 123.69,-9.20 122.62,-9.81 121.37,-10.39 120.12,-10.96 118.77,-11.57 117.41,-12.17 115.93,-12.48 114.44,-12.79 112.83,-13.42 111.22,-14.04 109.57,-14.64 107.93,-15.24 106.21,-15.56 104.49,-15.89 102.83,-16.22 101.16,-16.55 99.47,-16.85 97.77,-17.16 96.37,-17.24 94.97,-17.32 93.37,-17.35 91.77,-17.37 90.51,-17.58 89.24,-17.80 87.41,-17.91 85.58,-18.02 83.72,-18.04 81.87,-18.07 80.39,-18.05 78.91,-18.04 77.49,-18.02 76.08,-18.00 74.39,-18.00 72.70,-18.00 71.04,-18.00 69.39,-18.00 68.19,-18.03 67.00,-18.06 65.37,-17.92 63.75,-17.78 61.75,-17.65 59.76,-17.52 58.08,-17.26 56.40,-17.00 54.74,-16.93 53.09,-16.86 51.36,-16.85 49.63,-16.84 48.33,-16.58 47.02,-16.33 45.48,-16.26 43.93,-16.19 41.97,-15.92 40.01,-15.66 38.26,-15.61 36.51,-15.56 34.81,-15.42 33.10,-15.29 31.88,-15.22 30.65,-15.15 29.53,-15.13 28.40,-15.12 26.36,-14.88 24.32,-14.64 22.96,-14.44 21.61,-14.25 19.87,-14.07 18.13,-13.89 16.73,-13.59 15.33,-13.30 14.04,-12.98 12.75,-12.66 11.20,-12.29 9.65,-11.91 8.44,-11.39 7.22,-10.86 5.84,-10.23 4.47,-9.60 3.51,-9.13 2.55,-8.66 1.80,-7.62 1.05,-6.58 1.38,-5.42 1.71,-4.27 1.72,-3.07 1.73,-1.86 1.74,-0.66 1.75,0.53 1.68,0.75 1.61,0.96 2.17,1.18 2.73,1.41 3.19,1.79 3.64,2.18 3.95,2.70 4.26,3.21 4.39,3.80 4.52,4.38 4.46,4.98 4.39,5.58 4.14,6.12 3.89,6.67 3.48,7.11 3.06,7.54 2.53,7.82 2.00,8.11 1.41,8.20 0.82,8.30 0.23,8.20 -0.36,8.11 -0.89,7.83 -1.42,7.54 -1.83,7.11 -2.25,6.67 -2.50,6.13 -2.75,5.58 -2.82,4.99 -2.88,4.39 -2.75,3.80 -2.62,3.22 -2.31,2.70 -2.00,2.19 -1.55,1.80 -1.09,1.41 -0.53,1.18 0.02,0.96 0.62,0.93 1.22,0.90 1.79,1.06 2.37,1.22 2.87,1.55 3.37,1.89 3.73,2.37 4.10,2.85 4.29,3.42 4.48,3.99 4.48,4.59 4.48,5.19 4.29,5.76 4.10,6.33 3.73,6.80 3.37,7.28 2.87,7.62 2.38,7.96 1.80,8.12 1.22,8.28 0.62,8.25 0.02,8.21 0.02,8.21 0.02,8.21 -2.34,5.99 -4.70,3.77 -5.20,1.85 -5.71,-0.06 -5.70,-1.26 -5.69,-2.47 -5.68,-3.67 -5.66,-4.88 -5.63,-6.19 -5.60,-7.49 -5.36,-8.70 -5.12,-9.90 -4.19,-10.62 -3.27,-11.34 -2.60,-12.31 -1.93,-13.29 -0.39,-14.43 1.13,-15.58 2.52,-16.19 3.91,-16.81 4.93,-17.21 5.94,-17.60 7.51,-18.16 9.08,-18.72 10.43,-19.02 11.77,-19.32 12.89,-19.53 14.00,-19.73 15.91,-20.04 17.82,-20.34 18.96,-20.39 20.10,-20.43 21.17,-20.65 22.24,-20.87 23.94,-20.97 25.64,-21.06 26.92,-21.29 28.20,-21.51 30.16,-21.63 32.11,-21.76 33.48,-21.98 34.86,-22.21 36.48,-22.23 38.11,-22.26 39.18,-22.31 40.26,-22.35 41.34,-22.57 42.42,-22.79 43.77,-22.79 45.13,-22.80 46.25,-22.85 47.38,-22.90 49.27,-23.10 51.17,-23.31 52.78,-23.32 54.39,-23.33 55.85,-23.40 57.31,-23.47 58.42,-23.69 59.53,-23.91 61.09,-23.99 62.65,-24.07 64.82,-24.28 67.00,-24.49 69.11,-24.52 71.22,-24.56 72.75,-24.55 74.27,-24.54 75.88,-24.53 77.49,-24.53 78.93,-24.51 80.37,-24.49 82.00,-24.46 83.62,-24.44 84.70,-24.44 85.77,-24.44 86.88,-24.42 87.99,-24.39 89.18,-24.31 90.38,-24.23 92.04,-24.09 93.71,-23.95 95.38,-23.89 97.05,-23.82 98.79,-23.52 100.54,-23.23 102.25,-22.93 103.96,-22.63 105.82,-22.33 107.68,-22.02 109.71,-21.55 111.74,-21.08 113.43,-20.49 115.12,-19.91 116.30,-19.52 117.47,-19.12 119.53,-18.59 121.58,-18.06 122.99,-17.46 124.40,-16.85 125.89,-16.14 127.37,-15.42 128.55,-14.74 129.72,-14.06 130.95,-13.61 132.17,-13.16 133.74,-12.04 135.31,-10.91 136.36,-9.98 137.42,-9.05 138.38,-7.89 139.34,-6.74 140.24,-5.82 141.15,-4.91 141.87,-3.59 142.58,-2.28 143.34,-0.57 144.09,1.14 144.85,3.02 145.62,4.91 145.96,6.25 146.29,7.59 146.55,8.69 146.80,9.78 146.78,11.31 146.75,12.84 146.72,14.37 146.69,15.90 146.65,17.53 146.61,19.17 146.58,21.01 146.54,22.84 146.50,24.81 146.46,26.77 146.45,27.95 146.44,29.12 146.41,30.23 146.38,31.35 146.36,32.78 146.34,34.21 146.04,36.43 145.75,38.65 145.78,40.11 145.81,41.57 145.82,42.98 145.83,44.40 145.78,45.69 145.73,46.98 145.58,48.38 145.44,49.79 145.00,51.83 144.56,53.87 144.58,55.51 144.60,57.14 144.21,59.53 143.83,61.91 142.89,64.02 141.95,66.13 140.81,67.66 139.67,69.18 138.82,70.25 137.97,71.31 136.88,72.54 135.79,73.77 134.38,75.13 132.97,76.48 131.90,77.13 130.82,77.78 129.35,78.76 127.88,79.74 126.54,80.33 125.20,80.92 123.78,81.58 122.37,82.24 120.83,82.81 119.29,83.38 118.23,83.66 117.17,83.95 116.21,84.57 115.25,85.19 113.79,85.80 112.33,86.41 110.60,86.99 108.86,87.57 107.69,87.90 106.51,88.22 105.13,88.53 103.74,88.83 102.44,89.11 101.14,89.40 99.96,89.71 98.78,90.02 97.36,90.32 95.93,90.63 94.40,90.95 92.88,91.27 91.59,91.55 90.29,91.83 88.18,92.13 86.07,92.44 85.00,92.67 83.92,92.90 82.74,92.94 81.56,92.97 80.32,93.23 79.08,93.50 77.88,93.58 76.69,93.65 74.63,93.92 72.58,94.18 71.09,94.30 69.60,94.42 68.08,94.72 66.56,95.02 64.95,95.31 63.34,95.59 62.04,95.80 60.73,96.00 58.87,96.17 57.00,96.34 57.68,95.51 58.36,94.68 58.22,95.90 58.08,97.13 58.50,98.22 58.91,99.31 58.95,100.41 58.98,101.51 59.31,103.15 59.65,104.80 60.06,105.84 60.46,106.89 61.10,108.80 61.74,110.72 62.09,111.95 62.44,113.18 62.78,114.37 63.11,115.56 63.36,116.76 63.62,117.97 64.04,119.24 64.47,120.51 64.83,121.98 65.19,123.45 65.46,124.57 65.72,125.70 65.79,126.83 65.85,127.97 66.09,129.21 66.33,130.45 66.33,132.26 66.33,134.07 66.32,135.86 66.32,137.65 66.31,139.38 66.30,141.10 66.28,142.86 66.26,144.62 66.20,146.74 66.15,148.87 65.85,150.65 65.55,152.43 65.52,153.57 65.48,154.70 65.21,156.33 64.93,157.95 64.92,159.68 64.92,161.41 64.93,162.49 64.95,163.56 64.95,165.36 64.95,167.17 64.96,168.96 64.96,170.75 64.99,172.49 65.01,174.24 65.08,175.67 65.16,177.10 65.42,178.96 65.67,180.82 65.72,182.12 65.77,183.42 66.00,185.35 66.24,187.28 66.20,188.71 66.17,190.13 66.09,191.56 66.02,192.99 65.16,193.62 64.30,194.25 64.60,194.29 64.90,194.33 65.19,194.44 65.47,194.55 65.72,194.72 65.97,194.90 66.17,195.13 66.37,195.36 66.51,195.63 66.65,195.90 66.72,196.19 66.79,196.49 66.79,196.79 66.79,197.10 66.72,197.39 66.64,197.69 66.50,197.96 66.35,198.23 66.15,198.45 65.95,198.68 65.70,198.85 65.44,199.02 65.16,199.13 64.87,199.24 64.57,199.27 64.27,199.31 64.37,199.34 64.47,199.37 63.32,199.38 62.17,199.39 60.56,199.20 58.94,199.00 57.57,198.86 56.19,198.71 54.55,198.52 52.92,198.33 51.22,198.29 49.52,198.25 47.42,198.30 45.31,198.35 43.20,198.41 41.09,198.46 38.95,198.49 36.81,198.52 34.86,198.46 32.91,198.41 30.91,198.50 28.92,198.59 27.08,198.57 25.23,198.55 23.61,198.42 21.99,198.28 20.64,198.21 19.29,198.14 18.03,198.17 16.78,198.21 15.72,198.19 14.65,198.18 13.30,197.94 11.95,197.70 10.63,197.41 9.31,197.13 8.32,196.08 7.32,195.04 7.00,193.51 6.67,191.99 6.33,190.43 6.00,188.86 5.58,187.78 5.16,186.71 5.14,185.23 5.12,183.74 4.83,182.23 4.54,180.72 4.59,179.30 4.63,177.88 4.69,176.51 4.75,175.14 4.80,173.85 4.85,172.57 4.90,170.91 4.96,169.26 5.06,167.32 5.17,165.38 5.50,163.52 5.83,161.66 5.85,160.48 5.86,159.29 5.88,158.12 5.89,156.95 5.96,154.78 6.02,152.62 6.05,151.41 6.08,150.20 6.11,148.99 6.14,147.77 6.17,146.54 6.20,145.31 6.22,144.03 6.24,142.75 6.22,141.36 6.20,139.96 6.07,138.35 5.94,136.73 5.70,135.29 5.45,133.86 4.69,132.07 3.93,130.28 3.17,128.47 2.41,126.67 1.71,124.87 1.01,123.08 0.51,121.33 0.02,119.57 0.00,118.35 -0.00,117.13 -0.01,115.93 -0.02,114.73 -0.03,113.53 -0.04,112.33 -0.05,111.13 -0.06,109.93 -0.08,108.75 -0.09,107.56 -0.11,106.39 -0.12,105.23 -0.13,103.12 -0.13,101.02 -0.15,98.93 -0.16,96.83 -0.19,94.79 -0.22,92.75 -0.31,91.05 -0.39,89.35 -0.62,87.20 -0.84,85.05 -0.83,83.16 -0.82,81.28 -0.80,79.44 -0.78,77.60 -0.78,76.52 -0.78,75.45 -0.76,73.62 -0.73,71.79 -0.70,69.86 -0.67,67.92 -0.66,65.81 -0.65,63.70 -0.65,61.58 -0.65,59.45 -0.69,58.30 -0.73,57.15 -0.81,56.08 -0.89,55.00 -1.13,53.56 -1.38,52.13 -1.43,50.90 -1.47,49.67 -1.58,48.45 -1.68,47.23 -1.91,45.79 -2.15,44.36 -2.16,43.17 -2.17,41.97 -2.18,40.81 -2.19,39.64 -2.20,37.54 -2.20,35.43 -2.20,33.33 -2.20,31.23 -2.21,29.14 -2.21,27.05 -2.21,25.96 -2.22,24.87 -2.20,22.96 -2.19,21.05 -2.18,19.08 -2.16,17.11 -2.13,15.35 -2.09,13.60 -2.04,12.05 -1.98,10.50 -1.91,8.75 -1.85,7.01 -1.84,5.80 -1.83,4.59 -1.79,4.27 -1.75,3.95 -1.63,3.65 -1.52,3.36 -1.34,3.09 -1.16,2.83 -0.92,2.62 -0.68,2.41 -0.40,2.26 -0.11,2.11 0.19,2.03 0.50,1.96 0.82,1.96 1.14,1.96 1.45,2.03 1.76,2.11 2.04,2.26 2.32,2.41 2.56,2.62 2.80,2.83 2.98,3.09 3.16,3.36 3.28,3.65 3.39,3.95 3.43,4.27 3.47,4.59 3.47,4.59 L 3.47,4.59 Z"></path></g>
</svg>