<svg width="240" height="240" xmlns="http://www.w3.org/2000/svg">

 <g>
  <title>Layer 1</title>
  <g transform="rotate(-68 121 117)">
   <path fill="#e6e3e2" d="m132.46111,145.37861c-2.025,-0.633 -3.873,-1.294 -5.765,-1.789c-34.0967,-8.9233 -68.1907,-17.8453 -102.282,-26.7659c-7.941,-2.095 -15.7781,-4.59 -23.63306,-7c-0.47531,-0.1357 -0.91787,-0.367 -1.30078,-0.6796c-0.38291,-0.3125 -0.69806,-0.7 -0.92615,-1.1385c-2.417,-7.546 -5.09998,-15.192 -3.25098,-23.219c2.186,-9.472 4.91199,-18.8209 7.48999,-28.19995c0.46627,-1.63718 1.14575,-3.20597 2.02098,-4.66601c1.372,-2.324 3.422,-2.51302 4.954,-0.36902c0.854,1.194 1.961,1.359 3.106,1.677c27.491,7.64498 55.011,15.18808 82.469,22.94908c16.457,4.651 32.818,9.6409 49.225,14.4699c0.719,0.212 1.463,0.339 2.371,0.546c0.293,-0.5647 0.55,-1.1475 0.769,-1.7449c1.925,-6.422 3.837,-12.8487 5.735,-19.2801c0.724,-2.444 1.448,-4.888 2.156,-7.336c1.177,-4.07498 4.64,-5.27199 7.762,-2.455c8.698,7.8487 17.337,15.7627 25.918,23.742c16.738,15.5913 33.442,31.2184 50.113,46.8811c0.483,0.452 0.96,0.9129 1.467,1.3369c6.114,5.117 6.861,12.03 6.3,19.2895c-0.166,2.171 -1.758,3.186 -4.093,3.677c-3.247,0.541 -6.443,1.354 -9.554,2.43c-1.93,0.764 -3.857,1.236 -5.814,1.814c-15.4,4.547 -30.713,9.408 -46.1,13.995c-11.59,3.453 -23.272,6.594 -34.881,9.985c-3.231,0.943 -5.686,0.362 -7.6,-2.486c-2.163,-3.212 -4.417,-6.364 -6.651,-9.527c-0.83,-1.372 -1.799,-2.655 -2.891,-3.829c-2.412,-2.232 -2.776,-4.866 -1.9,-7.775c1.114,-3.708 2.377,-7.37 3.586,-11.0495c0.345,-1.064 0.726,-2.116 1.2,-3.483zm100.965,-7.419l0.159,-0.84c-22.887,-23.8 -47.332,-46.006 -70.771,-69.609c-0.506,1.055 -0.851,1.713 -1.145,2.4c-3.175,7.372 -6.34,14.7487 -9.493,22.13c-0.333,0.7683 -0.506,1.5966 -0.507,2.4341c0.034,0.3324 0,0.6683 -0.1,0.9871c-0.1,0.3189 -0.264,0.614 -0.482,0.8673c-0.218,0.2534 -0.485,0.4597 -0.786,0.6062c-0.3,0.1466 -0.627,0.2304 -0.961,0.2463c-1.016,0.1282 -2.047,0.0372 -3.025,-0.2669c-9.324,-2.789 -18.572,-5.8471 -27.952,-8.4311c-35.808,-9.862 -71.421,-20.362 -106.68,-32.04697c-0.4852,-0.12424 -0.9799,-0.20786 -1.479,-0.25l-11.05697,32.10997c1.972,0.4 3.64192,0.672 5.27392,1.089c17.39105,4.444 34.90995,8.449 52.13095,13.476c28.663,8.367 57.6171,15.594 86.5001,23.112c2.46,0.64 3.256,1.665 3.183,4.271c-0.028,1.0393 -0.162,2.073 -0.4,3.085c-1.724,7.257 -3.488,14.5061 -5.238,21.7575c-0.167,0.7 -0.32,1.395 -0.516,2.25l93.345,-19.3775zm-108.316,-10.655l-12.151,-3.6659c-0.222,3.752 -0.461,7.0269 -0.563,10.3069c0.03,0.3023 0.133,0.5927 0.301,0.8462c0.167,0.2535 0.394,0.4624 0.66,0.6088c3.175,1.078 6.4,2.0231 9.918,3.1081c0.639,-3.902 1.212,-7.3981 1.835,-11.2041zm27.637,50.0335l10,-3.033l-6.576,-10.349l-10.5,2.324c2.38,3.716 4.596,7.182 7.08,11.058l-0.004,0zm12.178,-3.727l11.778,-3.662c-2.239,-2.89 -4.168,-5.429 -6.169,-7.909c-0.175,-0.211 -0.393,-0.381 -0.641,-0.497c-0.247,-0.117 -0.517,-0.178 -0.791,-0.178c-3.279,0.64 -6.536,1.393 -9.851,2.123c1.948,3.476 3.734,6.663 5.674,10.123zm-57.594,-40.0175l1.1,-11.435l-10.863,-3.07l0,11.608l9.763,2.897zm-29.051,-8.642c1.314,-3.6 1.189,-7 1.155,-10.52l-11.4,-2.8l0,10.345l10.245,2.975zm-26.8431,-17.652c-4.04,-1.007 -7.7269,-2.2619 -11.6879,-3.0799c0.128,1.7999 0.267,3.0999 0.306,4.4079c0.157,5.334 0.135,5.3721 5.269,6.8001c1.931,0.537 3.8079,1.475 6.1129,1.323l0,-9.4511zm31.9931,8.176c-0.262,3.329 -0.483,6.139 -0.7,8.95c-0.079,1.02 0.1,1.879 1.261,2.217c2.6,0.762 5.2,1.545 8.179,2.432c0.521,-3.9 0.988,-7.391 1.477,-11.05l-10.217,-2.549zm-57.032,-15.108c0.306,3.223 0.527,6.109 0.9,8.975c0.0772,0.301 0.2226,0.5801 0.4252,0.8156s0.4568,0.4211 0.7428,0.5424c2.678,0.827 5.4,1.51 8.532,2.358c0,-3.059 0.0949,-5.747 -0.0711,-8.419c-0.0995,-0.3828 -0.2875,-0.7368 -0.5489,-1.0337c-0.2614,-0.2968 -0.5889,-0.5281 -0.9561,-0.6753c-2.843,-0.928 -5.7509,-1.655 -9.0239,-2.563zm168.653,54.8325l-10.129,2.552c1.8,3.053 3.411,5.79 5.219,8.861l9.922,-2.758l-5.012,-8.655zm19.369,4.33c-2,-2.716 -3.765,-5.114 -5.637,-7.658l-10.294,2.488c1.861,2.976 3.533,5.652 5.235,8.375l10.696,-3.205zm-190.282,-49.9065c-0.455,-3.778 -0.844,-7 -1.238,-10.267l-9.654,-2.7099c0.867,3.276 1.546,6.189 2.446,9.031c0.2816,0.9415 0.9254,1.7327 1.79,2.1999c2.1858,0.7007 4.4077,1.2835 6.656,1.746zm203.2,46.0775l-3.48,-7.8405l-10.358,2.9005l4.556,7.668l9.282,-2.728zm-91.575,-25.4005l-7.149,-1.986c-0.228,4.028 -0.439,7.753 -0.659,11.637c1.358,0.36 2.421,0.689 3.5,0.921c2.838,0.607 3.381,0.312 3.739,-2.527c0.318,-2.515 0.367,-5.063 0.565,-8.045l0.004,0zm-71.723,-19.72l-9.02,-2.269c0.349,3.643 0.658,6.871 0.979,10.212l7.0999,1.9721c0.327,-3.503 0.617,-6.5541 0.937,-9.9151l0.0041,0zm84.756,67.8775c-1.264,-2.447 -2.278,-4.555 -3.421,-6.592c-2.784,-4.964 -2.808,-4.952 -8.334,-3.881c-0.14,0.027 -0.249,0.219 -0.473,0.427c2.309,3.9 4.631,7.823 7.034,11.882l5.194,-1.836zm-147.78203,-85.2645c0.838,3.245 1.61006,6.235 2.38306,9.225c0.07015,0.3712 0.17557,0.7349 0.31494,1.086c0.2,0.409 0.40499,1.014 0.73999,1.119c2.25604,0.835 4.61744,1.3516 7.01604,1.535c-0.655,-2.1 -1.143,-3.713 -1.664,-5.318c-1.958,-6.031 -1.9611,-6.03 -8.09008,-7.644c-0.233,-0.0166 -0.46681,-0.0176 -0.69995,-0.003zm172.55503,67.1815l5.378,9.012l7.359,-1.889l-5.855,-8.774l-6.882,1.651zm57.664,-5.663l6.525,-1.906c-0.821,-2.9295 -1.525,-5.4405 -2.29,-8.1715l-8.022,2.274c1.323,2.726 2.469,5.0865 3.787,7.8035z"/>
  </g>
 </g>
</svg>