<svg fill="none" height="134" viewBox="0 0 253 134" width="253" xmlns="http://www.w3.org/2000/svg"><path d="m137.773 95.3245c-2.025-.633-3.873-1.294-5.765-1.789-34.0967-8.9233-68.1907-17.8453-102.282-26.7659-7.941-2.095-15.7781-4.59-23.63306-7-.47531-.1357-.91787-.367-1.30078-.6796-.38291-.3125-.69806-.7-.92615-1.1385-2.417-7.546-5.09998-15.192-3.250976-23.219 2.185996-9.472 4.911986-18.8209 7.489986-28.19995.46627-1.63718 1.14575-3.20597 2.02098-4.66601 1.372-2.324003 3.422-2.513021 4.954-.36902.854 1.194 1.961 1.359 3.106 1.677 27.491 7.64498 55.011 15.18808 82.469 22.94908 16.457 4.651 32.818 9.6409 49.225 14.4699.719.212 1.463.339 2.371.546.293-.5647.55-1.1475.769-1.7449 1.925-6.422 3.837-12.8487 5.735-19.2801.724-2.444 1.448-4.888 2.156-7.336 1.177-4.07498 4.64-5.27199 7.762-2.455 8.698 7.8487 17.337 15.7627 25.918 23.742 16.738 15.5913 33.442 31.2184 50.113 46.8811.483.452.96.9129 1.467 1.3369 6.114 5.117 6.861 12.03 6.3 19.2895-.166 2.171-1.758 3.186-4.093 3.677-3.247.541-6.443 1.354-9.554 2.43-1.93.764-3.857 1.236-5.814 1.814-15.4 4.547-30.713 9.408-46.1 13.995-11.59 3.453-23.272 6.594-34.881 9.985-3.231.943-5.686.362-7.6-2.486-2.163-3.212-4.417-6.364-6.651-9.527-.83-1.372-1.799-2.655-2.891-3.829-2.412-2.232-2.776-4.866-1.9-7.775 1.114-3.708 2.377-7.37 3.586-11.0495.345-1.064.726-2.116 1.2-3.483zm100.965-7.419.159-.84c-22.887-23.8-47.332-46.006-70.771-69.609-.506 1.055-.851 1.713-1.145 2.4-3.175 7.372-6.34 14.7487-9.493 22.13-.333.7683-.506 1.5966-.507 2.4341.034.3324 0 .6683-.1.9871-.1.3189-.264.614-.482.8673-.218.2534-.485.4597-.786.6062-.3.1466-.627.2304-.961.2463-1.016.1282-2.047.0372-3.025-.2669-9.324-2.789-18.572-5.8471-27.952-8.4311-35.808-9.862-71.421-20.362-106.68-32.04697-.4852-.12424-.9799-.20786-1.479-.25l-11.05697 32.10997c1.972.4 3.64192.672 5.27392 1.089 17.39105 4.444 34.90995 8.449 52.13095 13.476 28.663 8.367 57.6171 15.594 86.5001 23.112 2.46.64 3.256 1.665 3.183 4.271-.028 1.0393-.162 2.073-.4 3.085-1.724 7.257-3.488 14.5061-5.238 21.7575-.167.7-.32 1.395-.516 2.25zm-108.316-10.655-12.151-3.6659c-.222 3.752-.461 7.0269-.563 10.3069.03.3023.133.5927.301.8462.167.2535.394.4624.66.6088 3.175 1.078 6.4 2.0231 9.918 3.1081.639-3.902 1.212-7.3981 1.835-11.2041zm27.637 50.0335 10-3.033-6.576-10.349-10.5 2.324c2.38 3.716 4.596 7.182 7.08 11.058zm12.178-3.727 11.778-3.662c-2.239-2.89-4.168-5.429-6.169-7.909-.175-.211-.393-.381-.641-.497-.247-.117-.517-.178-.791-.178-3.279.64-6.536 1.393-9.851 2.123 1.948 3.476 3.734 6.663 5.674 10.123zm-57.594-40.0175 1.1-11.435-10.863-3.07v11.608zm-29.051-8.642c1.314-3.6 1.189-7 1.155-10.52l-11.4-2.8v10.345zm-26.8431-17.652c-4.04-1.007-7.7269-2.2619-11.6879-3.0799.128 1.7999.267 3.0999.306 4.4079.157 5.334.135 5.3721 5.269 6.8001 1.931.537 3.8079 1.475 6.1129 1.323zm31.9931 8.176c-.262 3.329-.483 6.139-.7 8.95-.079 1.02.1 1.879 1.261 2.217 2.6.762 5.2 1.545 8.179 2.432.521-3.9.988-7.391 1.477-11.05zm-57.032-15.108c.306 3.223.527 6.109.9 8.975.0772.301.2226.5801.4252.8156s.4568.4211.7428.5424c2.678.827 5.4 1.51 8.532 2.358 0-3.059.0949-5.747-.0711-8.419-.0995-.3828-.2875-.7368-.5489-1.0337-.2614-.2968-.5889-.5281-.9561-.6753-2.843-.928-5.7509-1.655-9.0239-2.563zm168.653 54.8325-10.129 2.552c1.8 3.053 3.411 5.79 5.219 8.861l9.922-2.758zm19.369 4.33c-2-2.716-3.765-5.114-5.637-7.658l-10.294 2.488c1.861 2.976 3.533 5.652 5.235 8.375zm-190.282-49.9065c-.455-3.778-.844-7-1.238-10.267l-9.654-2.7099c.867 3.276 1.546 6.189 2.446 9.031.2816.9415.9254 1.7327 1.79 2.1999 2.1858.7007 4.4077 1.2835 6.656 1.746zm203.2 46.0775-3.48-7.8405-10.358 2.9005 4.556 7.668zm-91.575-25.4005-7.149-1.986c-.228 4.028-.439 7.753-.659 11.637 1.358.36 2.421.689 3.5.921 2.838.607 3.381.312 3.739-2.527.318-2.515.367-5.063.565-8.045zm-71.723-19.72-9.02-2.269c.349 3.643.658 6.871.979 10.212l7.0999 1.9721c.327-3.503.617-6.5541.937-9.9151zm84.756 67.8775c-1.264-2.447-2.278-4.555-3.421-6.592-2.784-4.964-2.808-4.952-8.334-3.881-.14.027-.249.219-.473.427 2.309 3.9 4.631 7.823 7.034 11.882zm-147.78203-85.2645c.838 3.245 1.61006 6.235 2.38306 9.225.07015.3712.17557.7349.31494 1.086.2.409.40499 1.014.73999 1.119 2.25604.835 4.61744 1.3516 7.01604 1.535-.655-2.1-1.143-3.713-1.664-5.318-1.958-6.031-1.9611-6.03-8.09008-7.644-.233-.0166-.46681-.0176-.69995-.003zm172.55503 67.1815 5.378 9.012 7.359-1.889-5.855-8.774zm57.664-5.663 6.525-1.906c-.821-2.9295-1.525-5.4405-2.29-8.1715l-8.022 2.274c1.323 2.726 2.469 5.0865 3.787 7.8035z" fill="#000"/></svg>